<svg xmlns="http://www.w3.org/2000/svg" height="512" width="512" viewBox="-30 -30 60 60">
    <line x1="-30" y1="0" x2="30" y2="0" stroke="#10570D" stroke-width="5"/>
    <line x1="0" y1="-30" x2="0" y2="30" stroke="#10570D" stroke-width="5"/>
    <line x1="0" y1="0" x2="-30" y2="30" stroke="#10570D" stroke-width="5"/>
    <path d="M0-22 22 0 0 22-22 0z" fill="none" stroke="#F2F2F2" stroke-width="2"/>
    <path d="M0-20 20 0 0 20-20 0z" fill="#272727"/>
    <path d="M12-8 20 0 0 20-20 0-12-8z" fill="#10570D"/>
    <path d="M0-20 20 0 0 20-20 0z" fill="none" stroke="#13A10E" stroke-width="2"/>
    <path d="M0-11 11 0 0 11-11 0z" fill="#272727"/>
    <path d="M9 2 0 11-9 2z" fill="#10570D"/>
    <path d="M0-11 11 0 0 11-11 0z" fill="none" stroke="#13A10E" stroke-width="2"/>
</svg>
